<svg width="278" height="83" viewBox="0 0 278 83" fill="none" xmlns="http://www.w3.org/2000/svg">
<path d="M4.05882 67.9089C3.09694 67.9089 2.27961 67.5871 1.61241 66.9381C0.950765 66.2891 0.617163 65.4982 0.617163 64.5602C0.617163 63.6221 0.950765 62.8313 1.61241 62.1823C2.27961 61.5332 3.09694 61.2115 4.05882 61.2115H22.6349C25.6651 61.2115 27.9614 60.4479 29.5182 58.9317C31.075 57.4155 31.859 55.174 31.859 52.2234C31.859 49.2729 31.0806 46.9931 29.5182 45.3842C27.9614 43.7753 25.6651 42.9681 22.6349 42.9681H15.9573C13.7555 42.9681 11.6983 42.57 9.76897 41.7628C7.83964 40.9611 6.14939 39.8649 4.70935 38.4741C3.26374 37.0888 2.11837 35.4527 1.27325 33.5765C0.422562 31.7004 0 29.6824 0 27.539C0 25.3957 0.422562 23.3777 1.27325 21.5016C2.11837 19.6254 3.2693 17.9893 4.70935 16.604C6.14939 15.2187 7.83964 14.1224 9.76897 13.3153C11.6927 12.5135 13.7555 12.1099 15.9573 12.1099H33.7827C34.7446 12.1099 35.5564 12.4317 36.2236 13.0807C36.8908 13.7298 37.2188 14.5206 37.2188 15.4586C37.2188 16.3967 36.8908 17.193 36.2236 17.8365C35.5564 18.4856 34.7446 18.8128 33.7827 18.8128H15.9573C13.2051 18.8128 11.0089 19.5927 9.35753 21.158C7.7062 22.7232 6.87776 24.8503 6.87776 27.5281C6.87776 30.206 7.7062 32.3385 9.35753 33.8983C11.0089 35.4636 13.2106 36.2489 15.9573 36.2489H22.6349C24.9757 36.2489 27.1329 36.6471 29.1012 37.4542C31.0806 38.256 32.7764 39.374 34.1997 40.8084C35.6231 42.2428 36.7296 43.928 37.5358 45.8751C38.3364 47.8167 38.7423 49.9328 38.7423 52.2125C38.7423 54.4923 38.3364 56.5975 37.5358 58.5172C36.7296 60.437 35.6231 62.1005 34.1997 63.4803C32.7764 64.8656 31.0806 65.9509 29.1012 66.7363C27.1274 67.5216 24.9757 67.9089 22.6349 67.9089H4.05882Z" fill="url(#paint0_linear_34_2)"/>
<path d="M50.9855 81.0581C50.7131 81.6362 50.2849 82.1053 49.7067 82.4652C49.134 82.8197 48.5002 82.9997 47.8218 82.9997C46.8544 82.9997 46.0426 82.6779 45.3754 82.0289C44.7082 81.3799 44.3802 80.5891 44.3802 79.651C44.3802 79.4274 44.4024 79.1929 44.4469 78.9475C44.4914 78.702 44.5637 78.4675 44.6526 78.2439L51.3302 64.0256L37.9806 33.7728C37.8027 33.4128 37.7082 32.9656 37.7082 32.4311C37.7082 31.493 38.0418 30.7022 38.7034 30.0532C39.3706 29.4042 40.1879 29.0824 41.1498 29.0824C41.8837 29.0824 42.5231 29.2624 43.0736 29.6169C43.624 29.9768 44.0355 30.4677 44.3135 31.0894L55.1833 55.7084L66.6759 31.0894C66.9539 30.5113 67.3765 30.0423 67.9547 29.6823C68.5274 29.3278 69.1612 29.1479 69.8451 29.1479C70.807 29.1479 71.6188 29.4751 72.286 30.1187C72.9532 30.7677 73.2812 31.5585 73.2812 32.4966C73.2812 32.7202 73.259 32.9547 73.2145 33.2001C73.17 33.451 73.0977 33.6855 73.0088 33.9037L50.9911 81.0636L50.9855 81.0581Z" fill="url(#paint1_linear_34_2)"/>
<path d="M110.028 65.7C110.028 66.6381 109.699 67.4289 109.032 68.0779C108.365 68.7269 107.553 69.0487 106.591 69.0487C105.63 69.0487 104.812 68.7269 104.151 68.0779C103.483 67.4289 103.155 66.6381 103.155 65.7V44.2989C103.155 41.7083 102.349 39.6358 100.748 38.0923C99.141 36.5543 96.7335 35.7799 93.5198 35.7799C90.7231 35.7799 88.5102 36.5652 86.8811 38.1305C85.252 39.6903 84.4347 41.7519 84.4347 44.2989V65.7C84.4347 66.6381 84.1067 67.4289 83.4395 68.0779C82.7722 68.7269 81.9605 69.0487 80.9986 69.0487C80.0367 69.0487 79.2194 68.7269 78.5577 68.0779C77.8905 67.4289 77.5625 66.6381 77.5625 65.7V32.4257C77.5625 31.4876 77.8905 30.6968 78.5577 30.0478C79.2194 29.3988 80.0367 29.077 80.9986 29.077C81.866 29.077 82.6166 29.3333 83.2337 29.846C83.8564 30.3587 84.229 30.9968 84.368 31.7549C85.7024 30.9095 87.1258 30.2496 88.6325 29.7806C90.1448 29.3115 91.7739 29.077 93.5142 29.077C95.994 29.077 98.2402 29.4751 100.264 30.2823C102.282 31.084 104.012 32.1803 105.457 33.571C106.903 34.9563 108.026 36.5816 108.827 38.4359C109.633 40.2902 110.033 42.2482 110.033 44.3043V65.7054L110.028 65.7Z" fill="url(#paint2_linear_34_2)"/>
<path d="M154.886 41.2776C153.835 38.867 152.378 36.7509 150.516 34.9402C148.659 33.1295 146.479 31.7115 143.983 30.6807C141.481 29.6499 138.806 29.1372 135.965 29.1372C133.346 29.1372 130.894 29.5844 128.598 30.4789C126.307 31.3733 124.244 32.6059 122.404 34.1712V32.4914C122.404 31.5533 122.076 30.757 121.409 30.108C120.742 29.4645 119.93 29.1372 118.968 29.1372C118.006 29.1372 117.189 29.4645 116.527 30.108C115.86 30.757 115.532 31.5533 115.532 32.4914V79.6513C115.532 80.5894 115.86 81.3802 116.527 82.0292C117.189 82.6782 118.006 83 118.968 83C119.93 83 120.742 82.6782 121.409 82.0292C122.076 81.3802 122.404 80.5894 122.404 79.6513V64.0204C124.2 65.5802 126.246 66.8128 128.565 67.7127C130.883 68.6017 133.346 69.0489 135.965 69.0489C138.806 69.0489 141.481 68.5253 143.983 67.4782C146.479 66.4201 148.659 64.9912 150.516 63.1805C152.378 61.3698 153.835 59.2537 154.886 56.8431C155.942 54.427 156.47 51.8364 156.47 49.0603C156.47 46.2843 155.942 43.6937 154.886 41.2776ZM148.592 54.427C147.925 56.0359 146.996 57.4375 145.801 58.621C144.611 59.8045 143.176 60.7208 141.503 61.3698C139.829 62.0188 137.978 62.3461 135.965 62.3461C133.952 62.3461 132.179 62.0188 130.527 61.3698C128.876 60.7208 127.441 59.8045 126.224 58.621C125.012 57.4375 124.072 56.0359 123.405 54.427C122.743 52.8181 122.404 51.0292 122.404 49.0603C122.404 47.0915 122.743 45.3626 123.405 43.7319C124.072 42.0957 125.012 40.6995 126.224 39.5378C127.441 38.3761 128.876 37.4708 130.527 36.8163C132.179 36.1673 133.991 35.8455 135.965 35.8455C137.939 35.8455 139.829 36.1673 141.503 36.8163C143.176 37.4708 144.611 38.3761 145.801 39.5378C146.996 40.6995 147.925 42.0957 148.592 43.7319C149.259 45.3626 149.587 47.1351 149.587 49.0603C149.587 50.9856 149.259 52.8181 148.592 54.427Z" fill="url(#paint3_linear_34_2)"/>
<path d="M140.963 49.0818C140.963 49.8017 140.841 50.4562 140.602 51.0452C140.357 51.6342 140.018 52.1469 139.584 52.5777C139.151 53.0086 138.628 53.3467 138.017 53.5813C137.405 53.8158 136.727 53.9358 135.993 53.9358C135.259 53.9358 134.608 53.8158 134.008 53.5813C133.402 53.3467 132.879 53.0086 132.434 52.5777C131.989 52.1469 131.65 51.6342 131.406 51.0452C131.167 50.4562 131.039 49.8017 131.039 49.0818C131.039 48.3619 131.161 47.7292 131.406 47.1347C131.65 46.5348 131.995 46.0276 132.434 45.6022C132.879 45.1768 133.402 44.8496 134.008 44.6096C134.614 44.3751 135.275 44.2551 135.993 44.2551C136.71 44.2551 137.405 44.3751 138.017 44.6096C138.628 44.8496 139.151 45.1822 139.584 45.6022C140.024 46.0276 140.363 46.5348 140.602 47.1347C140.847 47.7292 140.963 48.3782 140.963 49.0818Z" fill="url(#paint4_linear_34_2)"/>
<path d="M188.151 13.299C184.126 18.0384 177.893 20.3891 170.899 21.2453V65.6947C171.01 70.0469 163.893 70.0741 164.015 65.6947V20.0564C163.693 2.6475 189.491 -0.739373 192.321 0.122344C192.321 0.122344 193.278 7.2506 188.151 13.299Z" fill="url(#paint5_linear_34_2)"/>
<path d="M179.394 32.4257C179.394 31.4876 179.722 30.6968 180.39 30.0478C181.051 29.3988 181.868 29.077 182.83 29.077C183.792 29.077 184.604 29.3988 185.271 30.0478C185.938 30.6968 186.266 31.4876 186.266 32.4257V53.8268C186.266 56.4174 187.073 58.4899 188.674 60.0334C190.281 61.5714 192.688 62.3458 195.902 62.3458C198.743 62.3458 200.967 61.5605 202.58 59.9952C204.181 58.4354 204.987 56.3738 204.987 53.8268V32.4257C204.987 31.4876 205.315 30.6968 205.982 30.0478C206.644 29.3988 207.461 29.077 208.423 29.077C209.385 29.077 210.197 29.3988 210.864 30.0478C211.531 30.6968 211.859 31.4876 211.859 32.4257V65.7C211.859 66.6381 211.531 67.4289 210.864 68.0779C210.197 68.7269 209.385 69.0487 208.423 69.0487C207.55 69.0487 206.805 68.7924 206.188 68.2797C205.565 67.767 205.193 67.1289 205.054 66.3708C203.769 67.2162 202.363 67.8761 200.823 68.3451C199.288 68.8142 197.648 69.0487 195.908 69.0487C193.428 69.0487 191.182 68.6506 189.158 67.8434C187.139 67.0417 185.41 65.9454 183.965 64.5547C182.519 63.1694 181.396 61.555 180.595 59.7225C179.789 57.8955 179.389 55.9211 179.389 53.8214V32.4203L179.394 32.4257Z" fill="url(#paint6_linear_34_2)"/>
<path d="M224.247 65.7654C224.247 66.7035 223.919 67.4998 223.252 68.1433C222.585 68.7924 221.773 69.1196 220.811 69.1196C219.849 69.1196 219.032 68.7924 218.37 68.1433C217.703 67.4998 217.375 66.7035 217.375 65.7654V32.4257C217.375 31.4876 217.703 30.6968 218.37 30.0478C219.032 29.3988 219.849 29.077 220.811 29.077C221.773 29.077 222.585 29.3988 223.252 30.0478C223.919 30.6968 224.247 31.4876 224.247 32.4257V36.7234C226.221 34.7109 228.362 33.0202 230.68 31.6567C232.999 30.2932 235.278 29.4533 237.53 29.1425C238.581 29.0061 239.504 29.2788 240.282 29.9442C241.066 30.615 241.45 31.4658 241.45 32.4912C241.45 33.342 241.166 34.0782 240.594 34.7054C240.015 35.3326 239.315 35.709 238.492 35.8453C237.157 36.0253 235.756 36.5161 234.294 37.3179C232.826 38.125 231.425 39.1286 230.102 40.3393C228.767 41.5446 227.589 42.8863 226.555 44.3643C225.526 45.8423 224.753 47.3421 224.247 48.8638V65.7654Z" fill="url(#paint7_linear_34_2)"/>
<path d="M272.625 56.7776C273.587 56.7776 274.404 57.0994 275.066 57.7484C275.733 58.3974 276.067 59.1882 276.067 60.1263C276.067 60.928 275.766 61.6698 275.171 62.3406C273.292 64.4404 270.985 66.0874 268.255 67.2709C265.519 68.4544 262.717 69.0435 259.826 69.0435C256.701 69.0435 253.893 68.5635 251.391 67.6036C248.895 66.6437 246.748 65.2912 244.958 63.5459C243.173 61.8007 241.794 59.6955 240.833 57.2412C239.871 54.7815 239.387 52.0491 239.387 49.0603C239.387 46.3334 239.893 43.7482 240.899 41.3103C241.906 38.8779 243.285 36.7618 245.03 34.9729C246.771 33.184 248.817 31.7606 251.152 30.7134C253.493 29.6608 255.995 29.1372 258.658 29.1372C261.321 29.1372 263.796 29.6281 266.092 30.6098C268.383 31.5969 270.395 32.9441 272.113 34.6729C273.831 36.3909 275.21 38.4198 276.239 40.7431C277.273 43.0665 277.857 45.5535 277.996 48.1877C278.04 49.0822 277.729 49.8839 277.067 50.5983C276.4 51.3128 275.561 51.6728 274.554 51.6728H246.409C247.327 58.7792 251.803 62.3406 259.831 62.3406C261.85 62.3406 263.729 61.9588 265.469 61.2007C267.209 60.4372 268.75 59.3464 270.084 57.912C270.768 57.1485 271.618 56.7722 272.625 56.7722V56.7776ZM270.768 45.6407C270.128 42.6411 268.738 40.2632 266.609 38.4961C264.474 36.7345 261.827 35.851 258.664 35.851C255.5 35.851 252.976 36.7345 250.818 38.4961C248.661 40.2632 247.26 42.6466 246.621 45.6407H270.773H270.768Z" fill="url(#paint8_linear_34_2)"/>
<path d="M164.482 11.2266C164.321 11.5374 164.171 11.8483 164.026 12.1646C163.031 14.2971 162.358 16.5659 162.069 18.8729C161.958 19.7292 161.903 20.5909 161.903 21.4472C158.778 21.3436 155.414 20.6509 152.184 18.8729C150.11 17.7385 148.097 16.1623 146.229 14.0135C146.051 13.8117 145.879 13.6099 145.706 13.3972C145.639 13.3209 145.573 13.2445 145.512 13.1627C145.795 13.0373 146.073 12.9173 146.346 12.8027C146.868 12.5846 147.38 12.3828 147.88 12.2028C154.736 9.65583 160.268 9.79763 164.482 11.2266Z" fill="url(#paint9_linear_34_2)"/>
<defs>
<linearGradient id="paint0_linear_34_2" x1="146.661" y1="0" x2="146.661" y2="83.1774" gradientUnits="userSpaceOnUse">
<stop stop-color="#FBEFDB"/>
<stop offset="1" stop-color="#FBEFDB" stop-opacity="0.3"/>
</linearGradient>
<linearGradient id="paint1_linear_34_2" x1="146.661" y1="0" x2="146.661" y2="83.1774" gradientUnits="userSpaceOnUse">
<stop stop-color="#FBEFDB"/>
<stop offset="1" stop-color="#FBEFDB" stop-opacity="0.3"/>
</linearGradient>
<linearGradient id="paint2_linear_34_2" x1="146.661" y1="0" x2="146.661" y2="83.1774" gradientUnits="userSpaceOnUse">
<stop stop-color="#FBEFDB"/>
<stop offset="1" stop-color="#FBEFDB" stop-opacity="0.3"/>
</linearGradient>
<linearGradient id="paint3_linear_34_2" x1="146.661" y1="0" x2="146.661" y2="83.1774" gradientUnits="userSpaceOnUse">
<stop stop-color="#FBEFDB"/>
<stop offset="1" stop-color="#FBEFDB" stop-opacity="0.3"/>
</linearGradient>
<linearGradient id="paint4_linear_34_2" x1="146.661" y1="0" x2="146.661" y2="83.1774" gradientUnits="userSpaceOnUse">
<stop stop-color="#FBEFDB"/>
<stop offset="1" stop-color="#FBEFDB" stop-opacity="0.3"/>
</linearGradient>
<linearGradient id="paint5_linear_34_2" x1="146.661" y1="0" x2="146.661" y2="83.1774" gradientUnits="userSpaceOnUse">
<stop stop-color="#FBEFDB"/>
<stop offset="1" stop-color="#FBEFDB" stop-opacity="0.3"/>
</linearGradient>
<linearGradient id="paint6_linear_34_2" x1="146.661" y1="0" x2="146.661" y2="83.1774" gradientUnits="userSpaceOnUse">
<stop stop-color="#FBEFDB"/>
<stop offset="1" stop-color="#FBEFDB" stop-opacity="0.3"/>
</linearGradient>
<linearGradient id="paint7_linear_34_2" x1="146.661" y1="0" x2="146.661" y2="83.1774" gradientUnits="userSpaceOnUse">
<stop stop-color="#FBEFDB"/>
<stop offset="1" stop-color="#FBEFDB" stop-opacity="0.3"/>
</linearGradient>
<linearGradient id="paint8_linear_34_2" x1="146.661" y1="0" x2="146.661" y2="83.1774" gradientUnits="userSpaceOnUse">
<stop stop-color="#FBEFDB"/>
<stop offset="1" stop-color="#FBEFDB" stop-opacity="0.3"/>
</linearGradient>
<linearGradient id="paint9_linear_34_2" x1="146.661" y1="0" x2="146.661" y2="83.1774" gradientUnits="userSpaceOnUse">
<stop stop-color="#FBEFDB"/>
<stop offset="1" stop-color="#FBEFDB" stop-opacity="0.3"/>
</linearGradient>
</defs>
</svg>
