<svg preserveAspectRatio="none" width="100%" height="100%" overflow="visible" style="display: block;" viewBox="0 0 508 150.678" fill="none" xmlns="http://www.w3.org/2000/svg">
<g id="Frame 9">
<g id="Vector">
<path d="M7.41684 123.282C5.65915 123.282 4.16562 122.697 2.94641 121.519C1.73737 120.341 1.12777 118.905 1.12777 117.202C1.12777 115.499 1.73737 114.064 2.94641 112.886C4.16562 111.707 5.65915 111.123 7.41684 111.123H41.3616C46.8988 111.123 51.0949 109.737 53.9397 106.985C56.7845 104.232 58.2171 100.163 58.2171 94.8063C58.2171 89.4499 56.7947 85.3112 53.9397 82.3904C51.0949 79.4696 46.8988 78.0043 41.3616 78.0043H29.1593C25.136 78.0043 21.3767 77.2815 17.8512 75.8162C14.3257 74.3607 11.237 72.3706 8.60556 69.8459C5.96395 67.331 3.87098 64.3607 2.32665 60.9548C0.772164 57.5488 0 53.8854 0 49.9943C0 46.1032 0.772164 42.4399 2.32665 39.0339C3.87098 35.628 5.97411 32.6577 8.60556 30.1428C11.237 27.628 14.3257 25.6378 17.8512 24.1725C21.3666 22.717 25.136 21.9844 29.1593 21.9844H61.7325C63.4902 21.9844 64.9735 22.5685 66.1927 23.7468C67.4119 24.925 68.0114 26.3606 68.0114 28.0636C68.0114 29.7666 67.4119 31.2121 66.1927 32.3804C64.9735 33.5587 63.4902 34.1527 61.7325 34.1527H29.1593C24.1301 34.1527 20.1169 35.5686 17.0994 38.4101C14.0818 41.2517 12.568 45.1131 12.568 49.9745C12.568 54.8359 14.0818 58.7072 17.0994 61.5389C20.1169 64.3805 24.1403 65.8062 29.1593 65.8062H41.3616C45.6389 65.8062 49.581 66.529 53.1777 67.9944C56.7947 69.4498 59.8935 71.4795 62.4945 74.0835C65.0954 76.6875 67.1173 79.7469 68.5905 83.2815C70.0535 86.8063 70.7952 90.6479 70.7952 94.7865C70.7952 98.9251 70.0535 102.747 68.5905 106.232C67.1173 109.717 65.0954 112.737 62.4945 115.242C59.8935 117.757 56.7947 119.727 53.1777 121.153C49.5709 122.579 45.6389 123.282 41.3616 123.282H7.41684Z" fill="url(#paint0_linear_0_4)"/>
<path d="M93.1677 147.153C92.6699 148.202 91.8876 149.054 90.8309 149.707C89.7844 150.351 88.6262 150.678 87.3867 150.678C85.6188 150.678 84.1354 150.093 82.9162 148.915C81.697 147.737 81.0976 146.301 81.0976 144.598C81.0976 144.192 81.1382 143.767 81.2195 143.321C81.3008 142.876 81.4329 142.45 81.5954 142.044L93.7976 116.232L69.4034 61.311C69.0782 60.6575 68.9055 59.8457 68.9055 58.8754C68.9055 57.1724 69.5151 55.7367 70.7242 54.5585C71.9434 53.3803 73.4369 52.7961 75.1946 52.7961C76.5357 52.7961 77.7041 53.1229 78.71 53.7664C79.7158 54.4199 80.4677 55.311 80.9757 56.4397L100.839 101.133L121.839 56.4397C122.347 55.3902 123.12 54.5387 124.176 53.8853C125.223 53.2417 126.381 52.915 127.631 52.915C129.388 52.915 130.872 53.509 132.091 54.6773C133.31 55.8556 133.91 57.2912 133.91 58.9942C133.91 59.4001 133.869 59.8259 133.788 60.2714C133.706 60.7269 133.574 61.1526 133.412 61.5486L93.1779 147.163L93.1677 147.153Z" fill="url(#paint1_linear_0_4)"/>
<path d="M201.057 119.272C201.057 120.975 200.458 122.41 199.239 123.588C198.02 124.767 196.536 125.351 194.778 125.351C193.021 125.351 191.527 124.767 190.318 123.588C189.099 122.41 188.5 120.975 188.5 119.272V80.4201C188.5 75.7171 187.026 71.9547 184.1 69.1527C181.164 66.3606 176.765 64.9547 170.892 64.9547C165.782 64.9547 161.738 66.3804 158.761 69.222C155.784 72.0537 154.291 75.7963 154.291 80.4201V119.272C154.291 120.975 153.691 122.41 152.472 123.588C151.253 124.767 149.769 125.351 148.012 125.351C146.254 125.351 144.761 124.767 143.551 123.588C142.332 122.41 141.733 120.975 141.733 119.272V58.8656C141.733 57.1626 142.332 55.7269 143.551 54.5487C144.761 53.3705 146.254 52.7863 148.012 52.7863C149.597 52.7863 150.968 53.2517 152.096 54.1824C153.234 55.1131 153.915 56.2715 154.169 57.6477C156.607 56.1131 159.208 54.9151 161.962 54.0636C164.725 53.2121 167.702 52.7863 170.882 52.7863C175.413 52.7863 179.518 53.5091 183.216 54.9745C186.904 56.4299 190.064 58.42 192.706 60.9448C195.347 63.4596 197.4 66.4101 198.863 69.7765C200.336 73.1428 201.068 76.6973 201.068 80.43V119.282L201.057 119.272Z" fill="url(#paint2_linear_0_4)"/>
<path d="M283.029 74.9353C281.108 70.5591 278.446 66.7175 275.043 63.4303C271.649 60.1432 267.667 57.5689 263.105 55.6976C258.533 53.8264 253.646 52.8957 248.454 52.8957C243.669 52.8957 239.188 53.7075 234.992 55.3313C230.806 56.9551 227.037 59.1927 223.674 62.0343V58.9848C223.674 57.2818 223.074 55.8363 221.855 54.658C220.636 53.4897 219.152 52.8957 217.395 52.7863C215.637 52.7863 214.143 53.4897 212.934 54.658C211.715 55.8363 211.116 57.2818 211.116 58.9848V144.599C211.116 146.302 211.715 147.737 212.934 148.916C214.143 150.094 215.637 150.678 217.395 150.678C219.152 150.678 220.636 150.094 221.855 148.916C223.074 147.737 223.674 146.302 223.674 144.599V116.223C226.955 119.054 230.694 121.292 234.931 122.925C239.168 124.539 243.669 125.351 248.454 125.351C253.646 125.351 258.533 124.401 263.105 122.5C267.667 120.579 271.649 117.985 275.043 114.698C278.446 111.411 281.108 107.569 283.029 103.193C284.959 98.8066 285.924 94.1037 285.924 89.064C285.924 84.0244 284.959 79.3215 283.029 74.9353ZM271.527 98.8066C270.308 101.727 268.611 104.272 266.427 106.421C264.253 108.569 261.632 110.232 258.573 111.411C255.515 112.589 252.132 113.183 248.454 113.183C244.776 113.183 241.535 112.589 238.517 111.411C235.5 110.232 232.879 108.569 230.654 106.421C228.439 104.272 226.722 101.727 225.502 98.8066C224.293 95.8858 223.674 92.6383 223.674 89.064C223.674 85.4898 224.293 82.3512 225.502 79.3908C226.722 76.4205 228.439 73.8858 230.654 71.7769C232.879 69.668 235.5 68.0244 238.517 66.8363C241.535 65.6581 244.847 65.0739 248.454 65.0739C252.061 65.0739 255.515 65.6581 258.573 66.8363C261.632 68.0244 264.253 69.668 266.427 71.7769C268.611 73.8858 270.308 76.4205 271.527 79.3908C272.747 82.3512 273.346 85.569 273.346 89.064C273.346 92.5591 272.747 95.8858 271.527 98.8066Z" fill="url(#paint3_linear_0_4)"/>
<path d="M257.588 89.103C257.588 90.4099 257.364 91.598 256.927 92.6673C256.48 93.7366 255.86 94.6673 255.068 95.4495C254.275 96.2317 253.32 96.8456 252.203 97.2713C251.085 97.697 249.846 97.9149 248.505 97.9149C247.163 97.9149 245.975 97.697 244.877 97.2713C243.77 96.8456 242.815 96.2317 242.002 95.4495C241.189 94.6673 240.57 93.7366 240.123 92.6673C239.686 91.598 239.452 90.4099 239.452 89.103C239.452 87.796 239.675 86.6475 240.123 85.5683C240.57 84.4792 241.2 83.5584 242.002 82.7861C242.815 82.0138 243.77 81.4198 244.877 80.9841C245.985 80.5584 247.194 80.3406 248.505 80.3406C249.815 80.3406 251.085 80.5584 252.203 80.9841C253.32 81.4198 254.275 82.0237 255.068 82.7861C255.871 83.5584 256.49 84.4792 256.927 85.5683C257.374 86.6475 257.588 87.8257 257.588 89.103Z" fill="url(#paint4_linear_0_4)"/>
<path d="M343.816 24.1429C336.46 32.7469 325.071 37.0143 312.29 38.5687V119.262C312.493 127.163 299.488 127.212 299.711 119.262V36.4103C299.122 4.80627 346.265 -1.34226 351.436 0.222104C351.436 0.222104 353.184 13.1627 343.816 24.1429Z" fill="url(#paint5_linear_0_4)"/>
<path d="M327.814 58.8656C327.814 57.1626 328.413 55.7269 329.633 54.5487C330.842 53.3705 332.335 52.7863 334.093 52.7863C335.85 52.7863 337.334 53.3705 338.553 54.5487C339.772 55.7269 340.372 57.1626 340.372 58.8656V97.7171C340.372 102.42 341.845 106.182 344.771 108.984C347.707 111.777 352.107 113.183 357.979 113.183C363.171 113.183 367.235 111.757 370.181 108.915C373.107 106.083 374.581 102.341 374.581 97.7171V58.8656C374.581 57.1626 375.18 55.7269 376.399 54.5487C377.608 53.3705 379.102 52.7863 380.859 52.7863C382.617 52.7863 384.101 53.3705 385.32 54.5487C386.539 55.7269 387.138 57.1626 387.138 58.8656V119.272C387.138 120.975 386.539 122.41 385.32 123.588C384.101 124.767 382.617 125.351 380.859 125.351C379.264 125.351 377.903 124.886 376.775 123.955C375.637 123.024 374.956 121.866 374.702 120.489C372.356 122.024 369.785 123.222 366.971 124.074C364.167 124.925 361.169 125.351 357.989 125.351C353.458 125.351 349.353 124.628 345.655 123.163C341.967 121.707 338.807 119.717 336.165 117.192C333.524 114.678 331.471 111.747 330.008 108.42C328.535 105.103 327.804 101.519 327.804 97.7072V58.8557L327.814 58.8656Z" fill="url(#paint6_linear_0_4)"/>
<path d="M409.775 119.39C409.775 121.093 409.176 122.539 407.956 123.707C406.737 124.886 405.254 125.48 403.496 125.48C401.739 125.48 400.245 124.886 399.036 123.707C397.817 122.539 397.217 121.093 397.217 119.39V58.8656C397.217 57.1626 397.817 55.7269 399.036 54.5487C400.245 53.3705 401.739 52.7863 403.496 52.7863C405.254 52.7863 406.737 53.3705 407.956 54.5487C409.176 55.7269 409.775 57.1626 409.775 58.8656V66.6676C413.382 63.0141 417.294 59.9448 421.53 57.4695C425.767 54.9943 429.933 53.4695 434.047 52.9052C435.968 52.6576 437.654 53.1527 439.077 54.3606C440.509 55.5784 441.21 57.123 441.21 58.9844C441.21 60.5289 440.692 61.8656 439.646 63.0042C438.589 64.1428 437.309 64.826 435.805 65.0735C433.367 65.4002 430.806 66.2913 428.134 67.7468C425.452 69.2121 422.892 71.0339 420.474 73.2319C418.035 75.42 415.881 77.8557 413.992 80.5389C412.112 83.222 410.7 85.9448 409.775 88.7072V119.39Z" fill="url(#paint7_linear_0_4)"/>
<path d="M498.178 103.074C499.935 103.074 501.429 103.658 502.638 104.836C503.857 106.015 504.467 107.45 504.467 109.153C504.467 110.609 503.918 111.955 502.831 113.173C499.397 116.985 495.18 119.975 490.192 122.124C485.193 124.272 480.072 125.341 474.789 125.341C469.079 125.341 463.948 124.47 459.376 122.727C454.815 120.985 450.893 118.529 447.621 115.361C444.36 112.193 441.84 108.371 440.082 103.916C438.325 99.4502 437.441 94.4898 437.441 89.064C437.441 84.1135 438.365 79.4205 440.204 74.9947C442.043 70.5789 444.563 66.7373 447.753 63.4897C450.933 60.2422 454.672 57.6581 458.939 55.7571C463.217 53.8462 467.789 52.8957 472.656 52.8957C477.522 52.8957 482.043 53.7868 486.24 55.5689C490.425 57.361 494.103 59.8066 497.243 62.9452C500.382 66.064 502.902 69.7472 504.782 73.965C506.671 78.1828 507.738 82.6977 507.992 87.4799C508.073 89.1037 507.505 90.5591 506.295 91.8561C505.076 93.1532 503.542 93.8066 501.703 93.8066H450.273C451.949 106.708 460.128 113.173 474.799 113.173C478.487 113.173 481.921 112.48 485.102 111.104C488.282 109.718 491.096 107.737 493.534 105.133C494.784 103.747 496.339 103.064 498.178 103.064V103.074ZM494.784 82.8561C493.616 77.4106 491.076 73.0937 487.184 69.8858C483.283 66.6878 478.447 65.0838 472.666 65.0838C466.885 65.0838 462.272 66.6878 458.33 69.8858C454.388 73.0937 451.827 77.4205 450.659 82.8561H494.794H494.784Z" fill="url(#paint8_linear_0_4)"/>
<path d="M300.565 20.3807C300.27 20.945 299.996 21.5094 299.732 22.0836C297.913 25.9549 296.684 30.0738 296.155 34.2619C295.952 35.8163 295.851 37.3807 295.851 38.9352C290.141 38.747 283.994 37.4896 278.091 34.2619C274.301 32.2025 270.623 29.3411 267.209 25.4401C266.884 25.0737 266.569 24.7074 266.254 24.3213C266.132 24.1827 266.01 24.044 265.899 23.8955C266.417 23.6678 266.925 23.45 267.423 23.2421C268.378 22.846 269.312 22.4797 270.227 22.153C282.754 17.5292 292.863 17.7866 300.565 20.3807Z" fill="url(#paint9_linear_0_4)"/>
</g>
</g>
<defs>
<linearGradient id="paint0_linear_0_4" x1="268" y1="0" x2="268" y2="151" gradientUnits="userSpaceOnUse">
<stop stop-color="#FBEFDB"/>
<stop offset="1" stop-color="#FBEFDB" stop-opacity="0.3"/>
</linearGradient>
<linearGradient id="paint1_linear_0_4" x1="268" y1="0" x2="268" y2="151" gradientUnits="userSpaceOnUse">
<stop stop-color="#FBEFDB"/>
<stop offset="1" stop-color="#FBEFDB" stop-opacity="0.3"/>
</linearGradient>
<linearGradient id="paint2_linear_0_4" x1="268" y1="0" x2="268" y2="151" gradientUnits="userSpaceOnUse">
<stop stop-color="#FBEFDB"/>
<stop offset="1" stop-color="#FBEFDB" stop-opacity="0.3"/>
</linearGradient>
<linearGradient id="paint3_linear_0_4" x1="268" y1="0" x2="268" y2="151" gradientUnits="userSpaceOnUse">
<stop stop-color="#FBEFDB"/>
<stop offset="1" stop-color="#FBEFDB" stop-opacity="0.3"/>
</linearGradient>
<linearGradient id="paint4_linear_0_4" x1="268" y1="0" x2="268" y2="151" gradientUnits="userSpaceOnUse">
<stop stop-color="#FBEFDB"/>
<stop offset="1" stop-color="#FBEFDB" stop-opacity="0.3"/>
</linearGradient>
<linearGradient id="paint5_linear_0_4" x1="268" y1="0" x2="268" y2="151" gradientUnits="userSpaceOnUse">
<stop stop-color="#FBEFDB"/>
<stop offset="1" stop-color="#FBEFDB" stop-opacity="0.3"/>
</linearGradient>
<linearGradient id="paint6_linear_0_4" x1="268" y1="0" x2="268" y2="151" gradientUnits="userSpaceOnUse">
<stop stop-color="#FBEFDB"/>
<stop offset="1" stop-color="#FBEFDB" stop-opacity="0.3"/>
</linearGradient>
<linearGradient id="paint7_linear_0_4" x1="268" y1="0" x2="268" y2="151" gradientUnits="userSpaceOnUse">
<stop stop-color="#FBEFDB"/>
<stop offset="1" stop-color="#FBEFDB" stop-opacity="0.3"/>
</linearGradient>
<linearGradient id="paint8_linear_0_4" x1="268" y1="0" x2="268" y2="151" gradientUnits="userSpaceOnUse">
<stop stop-color="#FBEFDB"/>
<stop offset="1" stop-color="#FBEFDB" stop-opacity="0.3"/>
</linearGradient>
<linearGradient id="paint9_linear_0_4" x1="268" y1="0" x2="268" y2="151" gradientUnits="userSpaceOnUse">
<stop stop-color="#FBEFDB"/>
<stop offset="1" stop-color="#FBEFDB" stop-opacity="0.3"/>
</linearGradient>
</defs>
</svg>
