<svg width="1000" height="1000" viewBox="0 0 1000 1000" fill="none" xmlns="http://www.w3.org/2000/svg">
<rect x="1" y="1" width="998" height="998" rx="8" fill="#061831"/>
<rect x="1" y="1" width="998" height="998" rx="8" stroke="#374253" stroke-width="2"/>
<path d="M313.666 377.123L475.053 389.732L617.818 433.866L719.916 533.373L798.5 764L475.053 566.267L363.324 478L313.666 377.123Z" fill="#44E0C7"/>
<path d="M816.973 784.179L811.217 756.712C800.324 703.061 788.376 644.252 767.848 594.049C724.889 482.929 642.877 405.572 534.041 385.798C510.378 381.439 481.113 380.185 457.116 377.564C415.879 374.202 374.256 367.677 335.049 354.941C306.838 345.396 274.567 331.976 256.428 307.131H256.402C252.009 299.409 247.872 291.716 244.018 284.052C232.61 261.4 223.772 239.262 218.479 218.263C217.246 213.505 216.218 208.775 215.37 204.131C215.165 202.991 214.882 201.908 214.548 200.882C207.585 178.516 176.754 185.781 179.914 210.855C186.671 249.832 204.374 291.26 228.5 332.289H228.525C234.923 343.173 241.757 354.029 248.977 364.771C246.151 378.618 244.172 392.608 242.785 406.654C234.178 492.246 249.388 583.792 297.383 653.199C301.159 659.296 307.968 667.474 312.233 673.258C315.085 676.477 321.585 684.17 324.412 687.219C328.6 691.407 333.122 696.194 337.335 700.297C340.264 702.918 348.075 709.899 350.901 712.435C383.094 739.104 418.499 761.67 456.397 776.486C537.792 806.83 629.696 810.933 713.584 791.672C639.948 798.653 565.13 790.846 494.551 766.713C432.245 744.346 372.997 712.435 330.038 655.991C311.848 631.887 297.511 604.221 287.799 574.731C270.636 520.482 267.938 460.932 277.368 404.318C332.068 476.005 399.076 540.597 451.309 580.828C494.14 614.25 548.403 636.503 596.167 659.952C644.213 683.173 690.846 710.44 733.624 744.09C755.875 761.784 778.176 779.648 800.606 797.228C806.978 802.243 813.35 807.2 819.747 812.158C819.902 812.272 820.03 812.386 820.184 812.5C820.03 812.358 819.927 812.215 819.773 812.044C821.443 802.642 818.874 793.268 816.973 784.179ZM603.284 624.821C510.249 579.489 431.963 533.36 363.028 449.279C351.132 434.776 341.061 420.815 330.193 405.999C326.827 401.412 324.412 398.734 323.461 391.411L356.759 399.759C362.489 401.212 369.786 402.779 375.644 403.663L402.93 407.709L458.632 409.789L503.158 414.176C511.611 415.003 520.809 417.083 529.391 418.678C588.151 429.619 638.971 459.878 680.902 507.916C737.273 573.705 762.76 658.755 782.493 744.916C727.073 695.453 668.03 656.39 603.284 624.821Z" fill="#FAEDDA"/>
</svg>
