<svg width="507" height="89" viewBox="0 0 507 89" fill="none" xmlns="http://www.w3.org/2000/svg">
<rect x="1.75" y="1.75" width="503.5" height="85.5" rx="18.25" stroke="#E8DFD1" stroke-opacity="0.05" stroke-width="3.5"/>
<path d="M189.6 65.26C188.76 65.26 188.04 64.96 187.44 64.36C186.88 63.8 186.6 63.1 186.6 62.26C186.6 61.42 186.88 60.72 187.44 60.16C188.04 59.56 188.76 59.26 189.6 59.26H204.3C207.38 59.26 208.92 57.86 208.92 55.06C208.92 52.3 207.38 50.92 204.3 50.92H196.26C194.9 50.92 193.6 50.66 192.36 50.14C191.16 49.62 190.08 48.92 189.12 48.04C188.2 47.12 187.46 46.06 186.9 44.86C186.34 43.66 186.06 42.36 186.06 40.96C186.06 39.56 186.34 38.26 186.9 37.06C187.46 35.86 188.2 34.82 189.12 33.94C190.08 33.02 191.16 32.3 192.36 31.78C193.6 31.26 194.9 31 196.26 31H209.94C210.78 31 211.48 31.3 212.04 31.9C212.64 32.46 212.94 33.16 212.94 34C212.94 34.84 212.64 35.56 212.04 36.16C211.48 36.72 210.78 37 209.94 37H196.26C194.94 37 193.9 37.34 193.14 38.02C192.42 38.7 192.06 39.68 192.06 40.96C192.06 42.24 192.42 43.22 193.14 43.9C193.9 44.58 194.94 44.92 196.26 44.92H204.3C205.7 44.92 207.04 45.18 208.32 45.7C209.6 46.18 210.72 46.86 211.68 47.74C212.68 48.62 213.46 49.7 214.02 50.98C214.62 52.22 214.92 53.58 214.92 55.06C214.92 56.54 214.62 57.9 214.02 59.14C213.46 60.38 212.7 61.44 211.74 62.32C210.78 63.24 209.66 63.96 208.38 64.48C207.1 65 205.74 65.26 204.3 65.26H189.6ZM234.672 31C235.512 31 236.212 31.3 236.772 31.9C237.372 32.46 237.672 33.16 237.672 34C237.672 34.84 237.372 35.56 236.772 36.16C236.212 36.72 235.512 37 234.672 37H229.092L229.032 54.76C229.032 55.92 229.092 56.86 229.212 57.58C229.372 58.3 229.632 58.86 229.992 59.26C230.392 59.66 230.912 59.94 231.552 60.1C232.232 60.22 233.112 60.28 234.192 60.28C235.032 60.28 235.732 60.56 236.292 61.12C236.892 61.72 237.192 62.44 237.192 63.28C237.192 64.12 236.892 64.82 236.292 65.38C235.732 65.98 235.032 66.28 234.192 66.28C230.632 66.28 227.872 65.3 225.912 63.34C223.992 61.42 223.032 58.56 223.032 54.76L223.092 37H220.212C219.372 37 218.652 36.72 218.052 36.16C217.492 35.56 217.212 34.84 217.212 34C217.212 33.16 217.492 32.46 218.052 31.9C218.652 31.3 219.372 31 220.212 31H223.152V22.36C223.152 21.52 223.432 20.82 223.992 20.26C224.592 19.66 225.312 19.36 226.152 19.36C226.992 19.36 227.692 19.66 228.252 20.26C228.852 20.82 229.152 21.52 229.152 22.36V31H234.672ZM272.85 63.28C272.85 64.12 272.55 64.82 271.95 65.38C271.39 65.98 270.69 66.28 269.85 66.28C269.01 66.28 268.29 65.98 267.69 65.38C267.13 64.82 266.85 64.12 266.85 63.28V61.72C265.25 63.12 263.43 64.22 261.39 65.02C259.39 65.86 257.25 66.28 254.97 66.28C252.49 66.28 250.15 65.8 247.95 64.84C245.79 63.92 243.89 62.64 242.25 61C240.65 59.4 239.39 57.52 238.47 55.36C237.55 53.2 237.09 50.88 237.09 48.4C237.09 45.92 237.55 43.6 238.47 41.44C239.39 39.28 240.65 37.4 242.25 35.8C243.89 34.16 245.79 32.88 247.95 31.96C250.15 31.04 252.49 30.58 254.97 30.58C257.25 30.58 259.39 31 261.39 31.84C263.43 32.64 265.25 33.74 266.85 35.14V33.52C266.85 32.68 267.13 31.98 267.69 31.42C268.29 30.82 269.01 30.52 269.85 30.52C270.69 30.52 271.39 30.82 271.95 31.42C272.55 31.98 272.85 32.68 272.85 33.52V63.28ZM254.97 60.28C256.69 60.28 258.27 60 259.71 59.44C261.15 58.84 262.39 58.02 263.43 56.98C264.51 55.9 265.33 54.64 265.89 53.2C266.49 51.76 266.79 50.16 266.79 48.4C266.79 46.68 266.49 45.1 265.89 43.66C265.33 42.18 264.51 40.92 263.43 39.88C262.39 38.84 261.15 38.04 259.71 37.48C258.27 36.88 256.69 36.58 254.97 36.58C253.21 36.58 251.59 36.88 250.11 37.48C248.67 38.04 247.43 38.84 246.39 39.88C245.35 40.92 244.53 42.18 243.93 43.66C243.37 45.1 243.09 46.68 243.09 48.4C243.09 50.16 243.37 51.76 243.93 53.2C244.53 54.64 245.35 55.9 246.39 56.98C247.43 58.02 248.67 58.84 250.11 59.44C251.59 60 253.21 60.28 254.97 60.28ZM283.662 63.34C283.662 64.18 283.362 64.88 282.762 65.44C282.202 66.04 281.502 66.34 280.662 66.34C279.822 66.34 279.102 66.04 278.502 65.44C277.942 64.88 277.662 64.18 277.662 63.34V33.52C277.662 32.68 277.942 31.98 278.502 31.42C279.102 30.82 279.822 30.52 280.662 30.52C281.502 30.52 282.202 30.82 282.762 31.42C283.362 31.98 283.662 32.68 283.662 33.52V37.36C285.382 35.56 287.242 34.06 289.242 32.86C291.282 31.62 293.282 30.86 295.242 30.58C296.162 30.46 296.962 30.7 297.642 31.3C298.322 31.9 298.662 32.66 298.662 33.58C298.662 34.34 298.402 35 297.882 35.56C297.402 36.12 296.802 36.46 296.082 36.58C294.922 36.74 293.702 37.18 292.422 37.9C291.142 38.62 289.922 39.52 288.762 40.6C287.602 41.68 286.562 42.88 285.642 44.2C284.762 45.52 284.102 46.86 283.662 48.22V63.34ZM317.582 31C318.422 31 319.122 31.3 319.682 31.9C320.282 32.46 320.582 33.16 320.582 34C320.582 34.84 320.282 35.56 319.682 36.16C319.122 36.72 318.422 37 317.582 37H312.002L311.942 54.76C311.942 55.92 312.002 56.86 312.122 57.58C312.282 58.3 312.542 58.86 312.902 59.26C313.302 59.66 313.822 59.94 314.462 60.1C315.142 60.22 316.022 60.28 317.102 60.28C317.942 60.28 318.642 60.56 319.202 61.12C319.802 61.72 320.102 62.44 320.102 63.28C320.102 64.12 319.802 64.82 319.202 65.38C318.642 65.98 317.942 66.28 317.102 66.28C313.542 66.28 310.782 65.3 308.822 63.34C306.902 61.42 305.942 58.56 305.942 54.76L306.002 37H303.122C302.282 37 301.562 36.72 300.962 36.16C300.402 35.56 300.122 34.84 300.122 34C300.122 33.16 300.402 32.46 300.962 31.9C301.562 31.3 302.282 31 303.122 31H306.062V22.36C306.062 21.52 306.342 20.82 306.902 20.26C307.502 19.66 308.222 19.36 309.062 19.36C309.902 19.36 310.602 19.66 311.162 20.26C311.762 20.82 312.062 21.52 312.062 22.36V31H317.582Z" fill="#E8DFD1" fill-opacity="0.1"/>
</svg>
